{
  "accessors": [
    {
      "bufferView": 2,
      "componentType": 5126,
      "count": 8729,
      "max": [
        0.91235548257827759,
        0.61489331722259521,
        0.91235548257827759
      ],
      "min": [
        -0.91235554218292236,
        -0.48199641704559326,
        -0.91235560178756714
      ],
      "type": "VEC3"
    },
    {
      "bufferView": 2,
      "byteOffset": 104748,
      "componentType": 5126,
      "count": 8729,
      "max": [
        0.99846303462982178,
        1,
        0.99846303462982178
      ],
      "min": [
        -0.99846303462982178,
        -1,
        -0.99846303462982178
      ],
      "type": "VEC3"
    },
    {
      "bufferView": 1,
      "componentType": 5126,
      "count": 8729,
      "max": [
        1.0000003576278687,
        1.0000001192092896
      ],
      "min": [
        0,
        0.625
      ],
      "type": "VEC2"
    },
    {
      "bufferView": 0,
      "componentType": 5125,
      "count": 41472,
      "max": [
        8728
      ],
      "min": [
        0
      ],
      "type": "SCALAR"
    },
    {
      "bufferView": 2,
      "byteOffset": 209496,
      "componentType": 5126,
      "count": 3498,
      "max": [
        1.0171248912811279,
        1.1122201681137085,
        1.0171248912811279
      ],
      "min": [
        -1.0171248912811279,
        0.38773450255393982,
        -1.0171250104904175
      ],
      "type": "VEC3"
    },
    {
      "bufferView": 2,
      "byteOffset": 251472,
      "componentType": 5126,
      "count": 3498,
      "max": [
        0.99770224094390869,
        -0.067751564085483551,
        0.99770224094390869
      ],
      "min": [
        -0.99770224094390869,
        -1,
        -0.99770224094390869
      ],
      "type": "VEC3"
    },
    {
      "bufferView": 1,
      "byteOffset": 69832,
      "componentType": 5126,
      "count": 3498,
      "max": [
        1.0000001192092896,
        1.0000001192092896
      ],
      "min": [
        0,
        0.49999997019767761
      ],
      "type": "VEC2"
    },
    {
      "bufferView": 0,
      "byteOffset": 165888,
      "componentType": 5125,
      "count": 15360,
      "max": [
        3497
      ],
      "min": [
        0
      ],
      "type": "SCALAR"
    },
    {
      "bufferView": 2,
      "byteOffset": 293448,
      "componentType": 5126,
      "count": 3496,
      "max": [
        1.0030031204223633,
        1.0000001192092896,
        1.0030031204223633
      ],
      "min": [
        -1.0030031204223633,
        -0.30839776992797852,
        -1.0030031204223633
      ],
      "type": "VEC3"
    },
    {
      "bufferView": 2,
      "byteOffset": 335400,
      "componentType": 5126,
      "count": 3496,
      "max": [
        0.99445128440856934,
        -0.10519756376743317,
        0.99445128440856934
      ],
      "min": [
        -0.99445128440856934,
        -1,
        -0.99445128440856934
      ],
      "type": "VEC3"
    },
    {
      "bufferView": 1,
      "byteOffset": 97816,
      "componentType": 5126,
      "count": 3496,
      "max": [
        1.0000001192092896,
        1.0000001192092896
      ],
      "min": [
        0,
        0.49999997019767761
      ],
      "type": "VEC2"
    },
    {
      "bufferView": 0,
      "byteOffset": 227328,
      "componentType": 5125,
      "count": 15360,
      "max": [
        3495
      ],
      "min": [
        0
      ],
      "type": "SCALAR"
    },
    {
      "bufferView": 2,
      "byteOffset": 377352,
      "componentType": 5126,
      "count": 5568,
      "max": [
        1.0024464130401611,
        1.0000001192092896,
        1.0024465322494507
      ],
      "min": [
        -1.0024465322494507,
        -0.86411428451538086,
        -1.0024465322494507
      ],
      "type": "VEC3"
    },
    {
      "bufferView": 2,
      "byteOffset": 444168,
      "componentType": 5126,
      "count": 5568,
      "max": [
        0.99648469686508179,
        -0.083773687481880188,
        0.99648469686508179
      ],
      "min": [
        -0.99648469686508179,
        -1,
        -0.99648469686508179
      ],
      "type": "VEC3"
    },
    {
      "bufferView": 1,
      "byteOffset": 125784,
      "componentType": 5126,
      "count": 5568,
      "max": [
        1.0000001192092896,
        1.0000001192092896
      ],
      "min": [
        0,
        0.49999997019767761
      ],
      "type": "VEC2"
    },
    {
      "bufferView": 0,
      "byteOffset": 288768,
      "componentType": 5125,
      "count": 21504,
      "max": [
        5567
      ],
      "min": [
        0
      ],
      "type": "SCALAR"
    },
    {
      "bufferView": 2,
      "byteOffset": 510984,
      "componentType": 5126,
      "count": 1677,
      "max": [
        0.99359524250030518,
        -0.034764617681503296,
        0.99359524250030518
      ],
      "min": [
        -0.9935951828956604,
        -1.0000001192092896,
        -0.99359530210494995
      ],
      "type": "VEC3"
    },
    {
      "bufferView": 2,
      "byteOffset": 531108,
      "componentType": 5126,
      "count": 1677,
      "max": [
        0.99517762660980225,
        0.30086204409599304,
        0.99517762660980225
      ],
      "min": [
        -0.99517762660980225,
        0.09808667004108429,
        -0.99517762660980225
      ],
      "type": "VEC3"
    },
    {
      "bufferView": 1,
      "byteOffset": 170328,
      "componentType": 5126,
      "count": 1677,
      "max": [
        1.0000001192092896,
        1.0000001192092896
      ],
      "min": [
        0,
        0.5
      ],
      "type": "VEC2"
    },
    {
      "bufferView": 0,
      "byteOffset": 374784,
      "componentType": 5125,
      "count": 9216,
      "max": [
        1676
      ],
      "min": [
        0
      ],
      "type": "SCALAR"
    },
    {
      "bufferView": 2,
      "byteOffset": 551232,
      "componentType": 5126,
      "count": 1677,
      "max": [
        0.98980462551116943,
        0.17649531364440918,
        0.98980462551116943
      ],
      "min": [
        -0.98980474472045898,
        -1.0000001192092896,
        -0.98980474472045898
      ],
      "type": "VEC3"
    },
    {
      "bufferView": 2,
      "byteOffset": 571356,
      "componentType": 5126,
      "count": 1677,
      "max": [
        0.99887341260910034,
        0.17545583844184875,
        0.99887341260910034
      ],
      "min": [
        -0.99887341260910034,
        0.047456406056880951,
        -0.99887341260910034
      ],
      "type": "VEC3"
    },
    {
      "bufferView": 1,
      "byteOffset": 183744,
      "componentType": 5126,
      "count": 1677,
      "max": [
        1.0000001192092896,
        1.0000001192092896
      ],
      "min": [
        0,
        0.5
      ],
      "type": "VEC2"
    },
    {
      "bufferView": 0,
      "byteOffset": 411648,
      "componentType": 5125,
      "count": 9216,
      "max": [
        1676
      ],
      "min": [
        0
      ],
      "type": "SCALAR"
    },
    {
      "bufferView": 2,
      "byteOffset": 591480,
      "componentType": 5126,
      "count": 3660,
      "max": [
        0.98277336359024048,
        -0.04180574044585228,
        0.9827733039855957
      ],
      "min": [
        -0.9827733039855957,
        -0.82977032661437988,
        -0.9827733039855957
      ],
      "type": "VEC3"
    },
    {
      "bufferView": 2,
      "byteOffset": 635400,
      "componentType": 5126,
      "count": 3660,
      "max": [
        0.99965310096740723,
        1,
        0.99965310096740723
      ],
      "min": [
        -0.99965310096740723,
        0.026337549090385437,
        -0.99965310096740723
      ],
      "type": "VEC3"
    },
    {
      "bufferView": 1,
      "byteOffset": 197160,
      "componentType": 5126,
      "count": 3660,
      "max": [
        1.0000001192092896,
        1.0000003576278687
      ],
      "min": [
        0,
        0.5
      ],
      "type": "VEC2"
    },
    {
      "bufferView": 0,
      "byteOffset": 448512,
      "componentType": 5125,
      "count": 15360,
      "max": [
        3659
      ],
      "min": [
        0
      ],
      "type": "SCALAR"
    },
    {
      "bufferView": 2,
      "byteOffset": 679320,
      "componentType": 5126,
      "count": 3793,
      "max": [
        1.0034916400909424,
        1.3856562376022339,
        1.0034967660903931
      ],
      "min": [
        -1.0034917593002319,
        -1.0000001192092896,
        -1.0034967660903931
      ],
      "type": "VEC3"
    },
    {
      "bufferView": 2,
      "byteOffset": 724836,
      "componentType": 5126,
      "count": 3793,
      "max": [
        0.99063456058502197,
        0.91403317451477051,
        0.99063456058502197
      ],
      "min": [
        -0.99063456058502197,
        0.13654033839702606,
        -0.99063456058502197
      ],
      "type": "VEC3"
    },
    {
      "bufferView": 1,
      "byteOffset": 226440,
      "componentType": 5126,
      "count": 3793,
      "max": [
        1.0000001192092896,
        1.0000002384185791
      ],
      "min": [
        -3.6507850609268644e-07,
        0.5
      ],
      "type": "VEC2"
    },
    {
      "bufferView": 0,
      "byteOffset": 509952,
      "componentType": 5125,
      "count": 16704,
      "max": [
        3792
      ],
      "min": [
        0
      ],
      "type": "SCALAR"
    },
    {
      "bufferView": 2,
      "byteOffset": 770352,
      "componentType": 5126,
      "count": 725,
      "max": [
        0.91112065315246582,
        0.76268976926803589,
        0.95800876617431641
      ],
      "min": [
        -0.91112077236175537,
        -0.67002445459365845,
        -0.95800876617431641
      ],
      "type": "VEC3"
    },
    {
      "bufferView": 2,
      "byteOffset": 779052,
      "componentType": 5126,
      "count": 725,
      "max": [
        0.94215452671051025,
        0.1365458220243454,
        0.99063456058502197
      ],
      "min": [
        -0.94215452671051025,
        0.13654033839702606,
        -0.99063456058502197
      ],
      "type": "VEC3"
    },
    {
      "bufferView": 1,
      "byteOffset": 256784,
      "componentType": 5126,
      "count": 725,
      "max": [
        1.0000001192092896,
        0.9186597466468811
      ],
      "min": [
        0.033332962542772293,
        0.57585066556930542
      ],
      "type": "VEC2"
    },
    {
      "bufferView": 0,
      "byteOffset": 576768,
      "componentType": 5125,
      "count": 3456,
      "max": [
        724
      ],
      "min": [
        0
      ],
      "type": "SCALAR"
    },
    {
      "bufferView": 2,
      "byteOffset": 787752,
      "componentType": 5126,
      "count": 1098,
      "max": [
        0.99359524250030518,
        0.52126586437225342,
        0.99359524250030518
      ],
      "min": [
        -0.9935951828956604,
        -0.7469058632850647,
        -0.99359530210494995
      ],
      "type": "VEC3"
    },
    {
      "bufferView": 2,
      "byteOffset": 800928,
      "componentType": 5126,
      "count": 1098,
      "max": [
        1,
        1,
        1
      ],
      "min": [
        -1,
        0,
        -1
      ],
      "type": "VEC3"
    },
    {
      "bufferView": 1,
      "byteOffset": 262584,
      "componentType": 5126,
      "count": 1098,
      "max": [
        1.0000001192092896,
        1.0000003576278687
      ],
      "min": [
        0,
        0.50000005960464478
      ],
      "type": "VEC2"
    },
    {
      "bufferView": 0,
      "byteOffset": 590592,
      "componentType": 5125,
      "count": 3840,
      "max": [
        1097
      ],
      "min": [
        0
      ],
      "type": "SCALAR"
    },
    {
      "bufferView": 2,
      "byteOffset": 814104,
      "componentType": 5126,
      "count": 365,
      "max": [
        1.0000002384185791,
        1,
        1.0000003576278687
      ],
      "min": [
        -0.99999982118606567,
        -8.3279781341552734,
        -1
      ],
      "type": "VEC3"
    },
    {
      "bufferView": 2,
      "byteOffset": 818484,
      "componentType": 5126,
      "count": 365,
      "max": [
        1,
        1,
        1
      ],
      "min": [
        -1,
        0,
        -1
      ],
      "type": "VEC3"
    },
    {
      "bufferView": 1,
      "byteOffset": 271368,
      "componentType": 5126,
      "count": 365,
      "max": [
        1.0000002384185791,
        1
      ],
      "min": [
        0,
        0.49999997019767761
      ],
      "type": "VEC2"
    },
    {
      "bufferView": 0,
      "byteOffset": 605952,
      "componentType": 5125,
      "count": 1824,
      "max": [
        364
      ],
      "min": [
        0
      ],
      "type": "SCALAR"
    }
  ],
  "asset": {
    "extras": {
      "author": "Manuel W. (https://sketchfab.com/nebulariser)",
      "license": "CC-BY-4.0 (http://creativecommons.org/licenses/by/4.0/)",
      "source": "https://sketchfab.com/3d-models/bob-lazar-ufo-2a74196564224e04af5d9301c9852a1e",
      "title": "Bob Lazar UFO"
    },
    "generator": "Sketchfab-7.86.0",
    "version": "2.0"
  },
  "bufferViews": [
    {
      "buffer": 0,
      "byteLength": 613248,
      "byteOffset": 0,
      "name": "floatBufferViews",
      "target": 34963
    },
    {
      "buffer": 0,
      "byteLength": 274288,
      "byteOffset": 613248,
      "byteStride": 8,
      "name": "floatBufferViews",
      "target": 34962
    },
    {
      "buffer": 0,
      "byteLength": 822864,
      "byteOffset": 887536,
      "byteStride": 12,
      "name": "floatBufferViews",
      "target": 34962
    }
  ],
  "buffers": [
    {
      "byteLength": 1710400,
      "uri": "scene.bin"
    }
  ],
  "materials": [
    {
      "doubleSided": true,
      "emissiveFactor": [
        0,
        0,
        0
      ],
      "name": "Metal",
      "pbrMetallicRoughness": {
        "baseColorFactor": [
          0.545427,
          0.57872999999999997,
          0.74934900000000004,
          1
        ],
        "metallicFactor": 1,
        "roughnessFactor": 0.25
      }
    },
    {
      "doubleSided": true,
      "emissiveFactor": [
        0,
        0,
        0
      ],
      "name": "Metal_negro",
      "pbrMetallicRoughness": {
        "baseColorFactor": [
          0.0290488,
          0.0290488,
          0.0290488,
          1
        ],
        "metallicFactor": 1,
        "roughnessFactor": 0.25
      }
    }
  ],
  "meshes": [
    {
      "primitives": [
        {
          "attributes": {
            "NORMAL": 1,
            "POSITION": 0,
            "TEXCOORD_0": 2
          },
          "indices": 3,
          "material": 0,
          "mode": 4
        }
      ]
    },
    {
      "primitives": [
        {
          "attributes": {
            "NORMAL": 5,
            "POSITION": 4,
            "TEXCOORD_0": 6
          },
          "indices": 7,
          "material": 0,
          "mode": 4
        }
      ]
    },
    {
      "primitives": [
        {
          "attributes": {
            "NORMAL": 9,
            "POSITION": 8,
            "TEXCOORD_0": 10
          },
          "indices": 11,
          "material": 0,
          "mode": 4
        }
      ]
    },
    {
      "primitives": [
        {
          "attributes": {
            "NORMAL": 13,
            "POSITION": 12,
            "TEXCOORD_0": 14
          },
          "indices": 15,
          "material": 0,
          "mode": 4
        }
      ]
    },
    {
      "primitives": [
        {
          "attributes": {
            "NORMAL": 17,
            "POSITION": 16,
            "TEXCOORD_0": 18
          },
          "indices": 19,
          "material": 0,
          "mode": 4
        }
      ]
    },
    {
      "primitives": [
        {
          "attributes": {
            "NORMAL": 21,
            "POSITION": 20,
            "TEXCOORD_0": 22
          },
          "indices": 23,
          "material": 0,
          "mode": 4
        }
      ]
    },
    {
      "primitives": [
        {
          "attributes": {
            "NORMAL": 25,
            "POSITION": 24,
            "TEXCOORD_0": 26
          },
          "indices": 27,
          "material": 1,
          "mode": 4
        }
      ]
    },
    {
      "primitives": [
        {
          "attributes": {
            "NORMAL": 29,
            "POSITION": 28,
            "TEXCOORD_0": 30
          },
          "indices": 31,
          "material": 0,
          "mode": 4
        }
      ]
    },
    {
      "primitives": [
        {
          "attributes": {
            "NORMAL": 33,
            "POSITION": 32,
            "TEXCOORD_0": 34
          },
          "indices": 35,
          "material": 1,
          "mode": 4
        }
      ]
    },
    {
      "primitives": [
        {
          "attributes": {
            "NORMAL": 37,
            "POSITION": 36,
            "TEXCOORD_0": 38
          },
          "indices": 39,
          "material": 0,
          "mode": 4
        }
      ]
    },
    {
      "primitives": [
        {
          "attributes": {
            "NORMAL": 41,
            "POSITION": 40,
            "TEXCOORD_0": 42
          },
          "indices": 43,
          "material": 0,
          "mode": 4
        }
      ]
    }
  ],
  "nodes": [
    {
      "children": [
        1
      ],
      "name": "RootNode (gltf orientation matrix)",
      "rotation": [
        -0.70710678118654746,
        -0,
        -0,
        0.70710678118654757
      ]
    },
    {
      "children": [
        2
      ],
      "name": "RootNode (model correction matrix)"
    },
    {
      "children": [
        3
      ],
      "name": "root"
    },
    {
      "children": [
        4,
        6,
        8,
        10,
        12,
        14,
        16,
        18,
        21,
        23
      ],
      "matrix": [
        1,
        0,
        0,
        0,
        0,
        2.2204460492503131e-16,
        1,
        0,
        0,
        -1,
        2.2204460492503131e-16,
        0,
        0,
        0,
        0,
        1
      ],
      "name": "GLTF_SceneRootNode"
    },
    {
      "children": [
        5
      ],
      "matrix": [
        2.5427494049072266,
        0,
        0,
        0,
        0,
        0.73838931322097778,
        0,
        0,
        0,
        0,
        2.5427494049072266,
        0,
        0,
        0,
        0,
        1
      ],
      "name": "Esfera_0"
    },
    {
      "mesh": 0,
      "name": ""
    },
    {
      "children": [
        7
      ],
      "matrix": [
        1.406503438949585,
        0,
        0,
        0,
        0,
        0.089288108050823212,
        0,
        0,
        0,
        0,
        1.406503438949585,
        0,
        0,
        -0.33929949998855591,
        0,
        1
      ],
      "name": "Cilindro_1"
    },
    {
      "mesh": 1,
      "name": ""
    },
    {
      "children": [
        9
      ],
      "matrix": [
        1.2205560207366943,
        0,
        0,
        0,
        0,
        0.1065133810043335,
        0,
        0,
        0,
        0,
        1.2205560207366943,
        0,
        0,
        -0.4002775251865387,
        0,
        1
      ],
      "name": "Cilindro.001_2"
    },
    {
      "mesh": 2,
      "name": ""
    },
    {
      "children": [
        11
      ],
      "matrix": [
        0.74566519260406494,
        0,
        0,
        0,
        0,
        0.055461324751377106,
        0,
        0,
        0,
        0,
        0.74566519260406494,
        0,
        0,
        -0.47880619764328003,
        0,
        1
      ],
      "name": "Cilindro.002_3"
    },
    {
      "mesh": 3,
      "name": ""
    },
    {
      "children": [
        13
      ],
      "matrix": [
        1.2474884986877441,
        0,
        0,
        0,
        0,
        0.13462221622467041,
        0,
        0,
        0,
        0,
        1.2474884986877441,
        0,
        0,
        0.47628110647201538,
        0,
        1
      ],
      "name": "Cilindro.003_4"
    },
    {
      "mesh": 4,
      "name": ""
    },
    {
      "children": [
        15
      ],
      "matrix": [
        1.0767284631729126,
        0,
        0,
        0,
        0,
        0.076353952288627625,
        0,
        0,
        0,
        0,
        1.0767284631729126,
        0,
        0,
        0.51512163877487183,
        0,
        1
      ],
      "name": "Cilindro.004_5"
    },
    {
      "mesh": 5,
      "name": ""
    },
    {
      "children": [
        17
      ],
      "matrix": [
        0.97984158992767334,
        0,
        0,
        0,
        0,
        0.090911120176315308,
        0,
        0,
        0,
        0,
        0.97984158992767334,
        0,
        0,
        0.58329439163208008,
        0,
        1
      ],
      "name": "Cilindro.005_6"
    },
    {
      "mesh": 6,
      "name": ""
    },
    {
      "children": [
        19,
        20
      ],
      "matrix": [
        0,
        0,
        -0.86987423896789551,
        0,
        0,
        0.11792454868555069,
        0,
        0,
        0.86987423896789551,
        0,
        0,
        0,
        0,
        0.68793052434921265,
        0,
        1
      ],
      "name": "Cilindro.006_7"
    },
    {
      "mesh": 7,
      "name": ""
    },
    {
      "mesh": 8,
      "name": ""
    },
    {
      "children": [
        22
      ],
      "matrix": [
        0.1210365891456604,
        0,
        0,
        0,
        0,
        0.0084490114822983742,
        0,
        0,
        0,
        0,
        0.1210365891456604,
        0,
        0,
        0.85499483346939087,
        0,
        1
      ],
      "name": "Cilindro.008_8"
    },
    {
      "mesh": 9,
      "name": ""
    },
    {
      "children": [
        24
      ],
      "matrix": [
        0.012372038327157497,
        0,
        0,
        0,
        0,
        0.012372038327157497,
        0,
        0,
        0,
        0,
        0.012372038327157497,
        0,
        0,
        0.96007406711578369,
        0,
        1
      ],
      "name": "Esfera.001_9"
    },
    {
      "mesh": 10,
      "name": ""
    }
  ],
  "scene": 0,
  "scenes": [
    {
      "name": "OSG_Scene",
      "nodes": [
        0
      ]
    }
  ]
}

