{
  "accessors": [
    {
      "bufferView": 2,
      "componentType": 5126,
      "count": 1551,
      "max": [
        99.104415893554688,
        99.104415893554688,
        5.3381500244140625
      ],
      "min": [
        -99.104415893554688,
        -99.104415893554688,
        -5.3381500244140625
      ],
      "type": "VEC3"
    },
    {
      "bufferView": 2,
      "byteOffset": 18612,
      "componentType": 5126,
      "count": 1551,
      "max": [
        1,
        1,
        1
      ],
      "min": [
        -1,
        -1,
        -1
      ],
      "type": "VEC3"
    },
    {
      "bufferView": 3,
      "componentType": 5126,
      "count": 1551,
      "max": [
        0.99888843297958374,
        0.99888849258422852,
        0.99977958202362061,
        1
      ],
      "min": [
        -0.99888825416564941,
        -0.9997488260269165,
        -0.99924927949905396,
        1
      ],
      "type": "VEC4"
    },
    {
      "bufferView": 1,
      "componentType": 5126,
      "count": 1551,
      "max": [
        0.93042588233947754,
        0.67415660619735718
      ],
      "min": [
        0.0042507927864789963,
        0.0069728908129036427
      ],
      "type": "VEC2"
    },
    {
      "bufferView": 0,
      "componentType": 5125,
      "count": 7800,
      "max": [
        1550
      ],
      "min": [
        0
      ],
      "type": "SCALAR"
    },
    {
      "bufferView": 2,
      "byteOffset": 37224,
      "componentType": 5126,
      "count": 4546,
      "max": [
        66.405288696289062,
        54.385574340820312,
        244.87380981445312
      ],
      "min": [
        -66.405288696289062,
        -99.7884521484375,
        -262.02816772460938
      ],
      "type": "VEC3"
    },
    {
      "bufferView": 2,
      "byteOffset": 91776,
      "componentType": 5126,
      "count": 4546,
      "max": [
        1,
        1,
        0.99999392032623291
      ],
      "min": [
        -1,
        -1,
        -0.99999904632568359
      ],
      "type": "VEC3"
    },
    {
      "bufferView": 3,
      "byteOffset": 24816,
      "componentType": 5126,
      "count": 4546,
      "max": [
        0.99997967481613159,
        0.99959856271743774,
        0.99999076128005981,
        1
      ],
      "min": [
        -0.99961698055267334,
        -0.99848908185958862,
        -0.99980080127716064,
        -1
      ],
      "type": "VEC4"
    },
    {
      "bufferView": 1,
      "byteOffset": 12408,
      "componentType": 5126,
      "count": 4546,
      "max": [
        0.99587655067443848,
        1.000125527381897
      ],
      "min": [
        0.013793372549116611,
        0.005585789680480957
      ],
      "type": "VEC2"
    },
    {
      "bufferView": 0,
      "byteOffset": 31200,
      "componentType": 5125,
      "count": 17796,
      "max": [
        4545
      ],
      "min": [
        0
      ],
      "type": "SCALAR"
    },
    {
      "bufferView": 2,
      "byteOffset": 146328,
      "componentType": 5126,
      "count": 3602,
      "max": [
        433.26864624023438,
        118.49571228027344,
        145.90388488769531
      ],
      "min": [
        -433.26864624023438,
        -80.348983764648438,
        -311.83120727539062
      ],
      "type": "VEC3"
    },
    {
      "bufferView": 2,
      "byteOffset": 189552,
      "componentType": 5126,
      "count": 3602,
      "max": [
        1,
        0.99992829561233521,
        1
      ],
      "min": [
        -1,
        -0.99999898672103882,
        -1
      ],
      "type": "VEC3"
    },
    {
      "bufferView": 3,
      "byteOffset": 97552,
      "componentType": 5126,
      "count": 3602,
      "max": [
        1,
        0.99997508525848389,
        1,
        1
      ],
      "min": [
        -1,
        -0.99999862909317017,
        -1,
        -1
      ],
      "type": "VEC4"
    },
    {
      "bufferView": 1,
      "byteOffset": 48776,
      "componentType": 5126,
      "count": 3602,
      "max": [
        0.99748343229293823,
        0.99844563007354736
      ],
      "min": [
        0.0059005618095397949,
        0
      ],
      "type": "VEC2"
    },
    {
      "bufferView": 0,
      "byteOffset": 102384,
      "componentType": 5125,
      "count": 14382,
      "max": [
        3601
      ],
      "min": [
        0
      ],
      "type": "SCALAR"
    },
    {
      "bufferView": 4,
      "componentType": 5126,
      "count": 92,
      "max": [
        4
      ],
      "min": [
        0.041666667908430099
      ],
      "type": "SCALAR"
    },
    {
      "bufferView": 5,
      "componentType": 5126,
      "count": 92,
      "max": [
        7.1054273576010019e-15,
        27.813613891601562,
        246.79277038574219
      ],
      "min": [
        -7.1054273576010019e-15,
        27.813613891601562,
        246.79277038574219
      ],
      "type": "VEC3"
    },
    {
      "bufferView": 4,
      "byteOffset": 368,
      "componentType": 5126,
      "count": 120,
      "max": [
        4
      ],
      "min": [
        0.041666667908430099
      ],
      "type": "SCALAR"
    },
    {
      "bufferView": 6,
      "componentType": 5126,
      "count": 120,
      "max": [
        0,
        0,
        0.99965733289718628,
        1
      ],
      "min": [
        0,
        0,
        -0.85264015197753906,
        -0.48414576053619385
      ],
      "type": "VEC4"
    },
    {
      "bufferView": 4,
      "byteOffset": 848,
      "componentType": 5126,
      "count": 121,
      "max": [
        4
      ],
      "min": [
        0.041666667908430099
      ],
      "type": "SCALAR"
    },
    {
      "bufferView": 5,
      "byteOffset": 1104,
      "componentType": 5126,
      "count": 121,
      "max": [
        40,
        12.771690368652344,
        0
      ],
      "min": [
        -29,
        -14.525057792663574,
        -16.368291854858398
      ],
      "type": "VEC3"
    },
    {
      "bufferView": 4,
      "byteOffset": 1332,
      "componentType": 5126,
      "count": 121,
      "max": [
        4
      ],
      "min": [
        0.041666667908430099
      ],
      "type": "SCALAR"
    },
    {
      "bufferView": 6,
      "byteOffset": 1920,
      "componentType": 5126,
      "count": 121,
      "max": [
        0,
        0,
        0.061048541218042374,
        1
      ],
      "min": [
        0,
        0,
        -0.074561625719070435,
        0.99721640348434448
      ],
      "type": "VEC4"
    }
  ],
  "animations": [
    {
      "channels": [
        {
          "sampler": 0,
          "target": {
            "node": 6,
            "path": "translation"
          }
        },
        {
          "sampler": 1,
          "target": {
            "node": 6,
            "path": "rotation"
          }
        },
        {
          "sampler": 2,
          "target": {
            "node": 5,
            "path": "translation"
          }
        },
        {
          "sampler": 3,
          "target": {
            "node": 5,
            "path": "rotation"
          }
        }
      ],
      "name": "Take 001",
      "samplers": [
        {
          "input": 15,
          "interpolation": "LINEAR",
          "output": 16
        },
        {
          "input": 17,
          "interpolation": "LINEAR",
          "output": 18
        },
        {
          "input": 19,
          "interpolation": "LINEAR",
          "output": 20
        },
        {
          "input": 21,
          "interpolation": "LINEAR",
          "output": 22
        }
      ]
    }
  ],
  "asset": {
    "extras": {
      "author": "Icarus (https://sketchfab.com/Icarius)",
      "license": "CC-BY-NC-4.0 (http://creativecommons.org/licenses/by-nc/4.0/)",
      "source": "https://sketchfab.com/models/75d927c0c5824e77808b7e822a833bc0",
      "title": "Biplane 'Trouble in Paradise' Asset"
    },
    "generator": "Sketchfab-3.25.5",
    "version": "2.0"
  },
  "bufferViews": [
    {
      "buffer": 0,
      "byteLength": 159912,
      "byteOffset": 0,
      "name": "floatBufferViews",
      "target": 34963
    },
    {
      "buffer": 0,
      "byteLength": 77592,
      "byteOffset": 159912,
      "byteStride": 8,
      "name": "floatBufferViews",
      "target": 34962
    },
    {
      "buffer": 0,
      "byteLength": 232776,
      "byteOffset": 237504,
      "byteStride": 12,
      "name": "floatBufferViews",
      "target": 34962
    },
    {
      "buffer": 0,
      "byteLength": 155184,
      "byteOffset": 470280,
      "byteStride": 16,
      "name": "floatBufferViews",
      "target": 34962
    },
    {
      "buffer": 0,
      "byteLength": 1816,
      "byteOffset": 625464,
      "name": "floatBufferViews"
    },
    {
      "buffer": 0,
      "byteLength": 2556,
      "byteOffset": 627280,
      "byteStride": 12,
      "name": "floatBufferViews"
    },
    {
      "buffer": 0,
      "byteLength": 3856,
      "byteOffset": 629836,
      "byteStride": 16,
      "name": "floatBufferViews"
    }
  ],
  "buffers": [
    {
      "byteLength": 633692,
      "uri": "scene.bin"
    }
  ],
  "images": [
    {
      "uri": "textures/material_metallicRoughness.png"
    },
    {
      "uri": "textures/material_normal.png"
    },
    {
      "uri": "textures/material_baseColor.png"
    },
    {
      "uri": "textures/material_2_baseColor.png"
    },
    {
      "uri": "textures/material_2_metallicRoughness.png"
    },
    {
      "uri": "textures/material_2_normal.png"
    }
  ],
  "materials": [
    {
      "doubleSided": true,
      "emissiveFactor": [
        0,
        0,
        0
      ],
      "name": "material",
      "normalTexture": {
        "index": 1,
        "scale": 1,
        "texCoord": 0
      },
      "occlusionTexture": {
        "index": 0,
        "strength": 1,
        "texCoord": 0
      },
      "pbrMetallicRoughness": {
        "baseColorFactor": [
          1,
          1,
          1,
          1
        ],
        "baseColorTexture": {
          "index": 2,
          "texCoord": 0
        },
        "metallicFactor": 1,
        "metallicRoughnessTexture": {
          "index": 0,
          "texCoord": 0
        },
        "roughnessFactor": 1
      }
    },
    {
      "alphaMode": "BLEND",
      "doubleSided": true,
      "name": "material_2",
      "normalTexture": {
        "index": 5,
        "scale": 1,
        "texCoord": 0
      },
      "pbrMetallicRoughness": {
        "baseColorFactor": [
          1,
          1,
          1,
          1
        ],
        "baseColorTexture": {
          "index": 3,
          "texCoord": 0
        },
        "metallicFactor": 1,
        "metallicRoughnessTexture": {
          "index": 4,
          "texCoord": 0
        },
        "roughnessFactor": 1
      }
    }
  ],
  "meshes": [
    {
      "name": "propeller_UV3_0",
      "primitives": [
        {
          "attributes": {
            "NORMAL": 1,
            "POSITION": 0,
            "TANGENT": 2,
            "TEXCOORD_0": 3
          },
          "indices": 4,
          "material": 0,
          "mode": 4
        }
      ]
    },
    {
      "name": "BiplaneHull_UV1_UV3_0",
      "primitives": [
        {
          "attributes": {
            "NORMAL": 6,
            "POSITION": 5,
            "TANGENT": 7,
            "TEXCOORD_0": 8
          },
          "indices": 9,
          "material": 0,
          "mode": 4
        }
      ]
    },
    {
      "name": "BiplaneWing_UV2_UV4_0",
      "primitives": [
        {
          "attributes": {
            "NORMAL": 11,
            "POSITION": 10,
            "TANGENT": 12,
            "TEXCOORD_0": 13
          },
          "indices": 14,
          "material": 1,
          "mode": 4
        }
      ]
    }
  ],
  "nodes": [
    {
      "children": [
        1
      ],
      "name": "RootNode (gltf orientation matrix)",
      "rotation": [
        -0.70710678118654746,
        -0,
        -0,
        0.70710678118654757
      ]
    },
    {
      "children": [
        2
      ],
      "name": "RootNode (model correction matrix)"
    },
    {
      "children": [
        3
      ],
      "matrix": [
        1,
        0,
        0,
        0,
        0,
        0,
        1,
        0,
        0,
        -1,
        0,
        0,
        0,
        0,
        0,
        1
      ],
      "name": "Anim.fbx"
    },
    {
      "children": [
        4
      ],
      "name": ""
    },
    {
      "children": [
        5
      ],
      "name": "RootNode"
    },
    {
      "children": [
        6,
        8,
        10
      ],
      "name": "biplane_final",
      "rotation": [
        0,
        -0,
        -0.01420632004737854,
        0.99989908933639526
      ],
      "translation": [
        1.7201724052429199,
        -2.3720026016235352,
        -13.979966163635254
      ]
    },
    {
      "children": [
        7
      ],
      "name": "propeller",
      "rotation": [
        0,
        0,
        0.25881907343864441,
        0.96592593193054199
      ],
      "translation": [
        0,
        27.813613891601562,
        246.79277038574219
      ]
    },
    {
      "mesh": 0,
      "name": "propeller_UV3_0"
    },
    {
      "children": [
        9
      ],
      "name": "BiplaneHull_UV1"
    },
    {
      "mesh": 1,
      "name": "BiplaneHull_UV1_UV3_0"
    },
    {
      "children": [
        11
      ],
      "name": "BiplaneWing_UV2"
    },
    {
      "mesh": 2,
      "name": "BiplaneWing_UV2_UV4_0"
    }
  ],
  "samplers": [
    {
      "magFilter": 9729,
      "minFilter": 9987,
      "wrapS": 10497,
      "wrapT": 10497
    }
  ],
  "scene": 0,
  "scenes": [
    {
      "name": "OSG_Scene",
      "nodes": [
        0
      ]
    }
  ],
  "textures": [
    {
      "sampler": 0,
      "source": 0
    },
    {
      "sampler": 0,
      "source": 1
    },
    {
      "sampler": 0,
      "source": 2
    },
    {
      "sampler": 0,
      "source": 3
    },
    {
      "sampler": 0,
      "source": 4
    },
    {
      "sampler": 0,
      "source": 5
    }
  ]
}

